# AST/ASF file generated using VICON BodyLanguage
# -----------------------------------------------
:version 1.10
:name VICON
:units
  mass 1.0
  length 0.45
  angle deg
:documentation
   .ast/.asf automatically generated from VICON data using
   VICON BodyBuilder and BodyLanguage model FoxedUp or BRILLIANT.MOD
:root
   order TX TY TZ RX RY RZ
   axis XYZ
   position 0 0 0  
   orientation 0 0 0 
:bonedata
  begin
     id 1 
     name lhipjoint
     direction 0.623529 -0.717805 0.309788 
     length 2.23224 
     axis 0 0 0  XYZ
  end
  begin
     id 2 
     name lfemur
     direction 0.34202 -0.939693 0  
     length 7.11402  
     axis 0 0 20  XYZ
    dof rx ry rz
    limits (-160.0 20.0)
           (-70.0 70.0)
           (-60.0 70.0)
  end
  begin
     id 3 
     name ltibia
     direction 0.34202 -0.939693 0   
     length 6.78496   
     axis 0 0 20   XYZ
    dof rx
    limits (-10.0 170.0)
  end
  begin
     id 4 
     name lfoot
     direction 0.125078 -0.343648 0.930732   
     length 1.84054   
     axis -90 7.62852e-016 20   XYZ
    dof rx rz
    limits (-45.0 90.0)
           (-70.0 20.0)
  end
  begin
     id 5 
     name ltoes
     direction 1.53565e-011 -4.21893e-011 1   
     length 0.916474   
     axis -90 7.62852e-016 20   XYZ
    dof rx
    limits (-90.0 20.0)
  end
  begin
     id 6 
     name rhipjoint
     direction -0.564688 -0.757748 0.327026   
     length 2.11457  
     axis 0 0 0  XYZ 
  end
  begin
     id 7 
     name rfemur
     direction -0.34202 -0.939693 0   
     length 7.14609   
     axis 0 0 -20   XYZ
    dof rx ry rz
    limits (-160.0 20.0)
           (-70.0 70.0)
           (-70.0 60.0)
  end
  begin
     id 8 
     name rtibia
     direction -0.34202 -0.939693 0   
     length 6.78101   
     axis 0 0 -20   XYZ
    dof rx
    limits (-10.0 170.0)
 end
 begin
     id 9 
     name rfoot
     direction -0.0992671 -0.272734 0.956955   
     length 1.96168  
     axis -90 -7.62852e-016 -20   XYZ
    dof rx rz
    limits (-45.0 90.0)
           (-20.0 70.0)
  end
  begin
     id 10 
     name rtoes
     direction -1.5356e-011 -4.21891e-011 1   
     length 0.982933   
     axis -90 -7.62852e-016 -20   XYZ
    dof rx
    limits (-90.0 20.0)
  end
  begin
     id 11 
     name lowerback
     direction -0.00596953 0.998668 0.0512524   
     length 1.87557   
     axis 0 0 0   XYZ
    dof rx ry rz
    limits (-20.0 45.0)
           (-30.0 30.0)
           (-30.0 30.0)
  end
  begin
     id 12 
     name upperback
     direction 0.00584879 0.999652 0.0257308   
     length 1.87883   
     axis 0 0 0   XYZ
    dof rx ry rz
    limits (-20.0 45.0)
           (-30.0 30.0)
           (-30.0 30.0)
  end
  begin
     id 13 
     name thorax
     direction 0.010104 0.999947 0.00178881   
     length 1.87779   
     axis 0 0 0   XYZ
    dof rx ry rz
    limits (-20.0 45.0)
           (-30.0 30.0)
           (-30.0 30.0)
  end
  begin
     id 14 
     name lowerneck
     direction 0.0120771 0.995934 -0.0892773   
     length 1.40897   
     axis 0 0 0   XYZ
    dof rx ry rz
    limits (-20.0 45.0)
           (-30.0 30.0)
           (-30.0 30.0)
  end
  begin
     id 15 
     name upperneck
     direction -0.030568 0.999465 -0.0116366   
     length 1.38661   
     axis 0 0 0   XYZ
    dof rx ry rz
    limits (-20.0 45.0)
           (-30.0 30.0)
           (-30.0 30.0)
  end
  begin
     id 16
     name head
     direction -0.0170715 0.999854 -0.00104426  
     length 1.47052  
     axis 0 0 0   XYZ
    dof rx ry rz
    limits (-20.0 45.0)
           (-30.0 30.0)
           (-30.0 30.0)
  end
  begin
     id 17 
     name lclavicle
     direction 0.977763 0.206143 0.038532  
     length 3.02424  
     axis 0 0 0   XYZ
    dof ry rz
    limits (-20.0 10.0)
           (0.0 20.0)
  end
  begin
     id 18 
     name lhumerus
     direction 1 -4.48965e-011 -2.62654e-027   
     length 4.68382   
     axis 180 -30 -90   XYZ
    dof rx ry rz
    limits (-60.0 90.0)
           (-90.0 90.0)
           (-90.0 90.0)
  end
  begin
     id 19
     name lradius
     direction 1 -4.48973e-011 -1.54954e-027   
     length 2.98124   
     axis 180 -30 -90   XYZ
    dof rx
    limits (-10.0 170.0)
  end
  begin
     id 20
     name lwrist
     direction 1 -4.48959e-011 7.20928e-028   
     length 1.49062   
     axis -5.52449e-016 90 90   XYZ
    dof ry
    limits (-180.0 0.0)
 end
  begin
     id 21 
     name lhand
     direction 1 -4.48971e-011 1.44186e-027   
     length 0.707595   
     axis -9.20027e-016 90 90   XYZ
    dof rx rz
    limits (-90.0 90.0)
           (-45.0 45.0)
  end
  begin
     id 22 
     name lfingers
     direction 1 -4.48985e-011 2.88371e-027   
     length 0.570481   
     axis -1.84005e-015 90 90   XYZ
    dof rx
    limits (0.0 90.0)
  end
  begin
     id 23
     name lthumb
     direction 0.707107 -6.34929e-011 0.707107   
     length 0.819101   
     axis -90 45 2.85299e-015   XYZ
    dof rx rz
    limits (-45.0 45.0)
           (-45.0 45.0)
  end
  begin
     id 24 
     name rclavicle
     direction -0.958661 0.284411 -0.00895327   
     length 3.11921  
     axis 0 0 0   XYZ 
    dof ry rz
    limits (-10.0 20.0)
           (-20.0 0.0)
  end
  begin
     id 25 
     name rhumerus
     direction -1 -4.48963e-011 -4.22193e-027  
     length 4.75876   
     axis 180 30 90   XYZ
    dof rx ry rz
    limits (-90.0 60.0)
           (-90.0 90.0)
           (-90.0 90.0)
  end
  begin
     id 26 
     name rradius
     direction -1 -4.48968e-011 -1.07616e-027   
     length 2.93293   
     axis 180 30 90   XYZ
    dof rx
    limits (-10.0 170.0)
  end
  begin
     id 27 
     name rwrist
     direction -1 -4.48965e-011 7.20928e-028   
     length 1.46647   
     axis -5.52449e-016 -90 -90   XYZ
    dof ry
    limits (-180.0 0.0)
  end
  begin
     id 28
     name rhand
     direction -1 -4.48971e-011 1.44186e-027   
     length 0.831748   
     axis -9.20027e-016 -90 -90   XYZ
    dof rx rz
    limits (-90.0 90.0)
           (-45.0 45.0)
  end
  begin
     id 29
     name rfingers
     direction -1 -4.48961e-011 2.88371e-027   
     length 0.670577   
     axis -1.84005e-015 -90 -90   XYZ
    dof rx
    limits (0.0 90.0)
  end
  begin
     id 30
     name rthumb
     direction -0.707107 -6.34929e-011 0.707107   
     length 0.962818   
     axis -90 -45 -2.85299e-015   XYZ
    dof rx rz
    limits (-45.0 45.0)
           (-45.0 45.0)
  end
:hierarchy
  begin
    root lhipjoint rhipjoint lowerback
    lhipjoint lfemur
    lfemur ltibia
    ltibia lfoot
    lfoot ltoes
    rhipjoint rfemur
    rfemur rtibia
    rtibia rfoot
    rfoot rtoes
    lowerback upperback
    upperback thorax
    thorax lowerneck lclavicle rclavicle
    lowerneck upperneck
    upperneck head
    lclavicle lhumerus
    lhumerus lradius
    lradius lwrist
    lwrist lhand lthumb
    lhand lfingers
    rclavicle rhumerus
    rhumerus rradius
    rradius rwrist
    rwrist rhand rthumb
    rhand rfingers
  end

#!OML:ASF E:\id_vita\Project 1\Capture day 1\Session 1\Female.ASF
:FULLY-SPECIFIED
:DEGREES
568
root -6.37842 13.445 -4.96479 -129.001 -72.1115 191.15
lowerback 15.9054 1.62825 -7.33858
upperback 3.49191 0.672477 -0.902161
thorax -5.2633 0.334238 3.06725
lowerneck -11.9081 7.47218 -0.47296
upperneck -35.0318 6.06999 -9.36965
head -8.9161 2.50011 -3.23786
rclavicle -4.45278e-014 2.127e-014
rhumerus 8.87088 27.7015 -102.455
rradius 71.3647
rwrist -9.41359
rhand -29.8169 -11.3727
rfingers 7.12502
rthumb -3.14063 -41.3293
lclavicle -4.45278e-014 2.127e-014
lhumerus 94.1013 33.12 213.828
lradius 9.36545
lwrist -133.59
lhand -26.6802 21.0811
lfingers 7.12502
lthumb -0.111247 51.0608
rfemur -101.309 9.6822 53.208
rtibia 66.4201
rfoot -16.5235 -23.336
rtoes 2.70621
lfemur -111.936 19.8405 -32.8329
ltibia 99.9357
lfoot -13.2067 -6.89328
ltoes -6.60038
569
root -6.34058 13.4398 -4.97384 -128.983 -72.5446 191.35
lowerback 15.7953 1.55837 -6.92643
upperback 3.44241 0.656941 -0.967851
thorax -5.25075 0.324 2.76844
lowerneck -12.0308 7.33599 -0.581743
upperneck -34.9978 5.97043 -9.01416
head -8.91179 2.43301 -3.08711
rclavicle 6.12257e-014 8.94531e-014
rhumerus 8.80515 27.4921 -102.468
rradius 71.9924
rwrist -9.78643
rhand -29.4922 -12.4881
rfingers 7.12502
rthumb -2.8271 -42.4491
lclavicle 6.12257e-014 8.94531e-014
lhumerus 92.8937 33.176 212.16
lradius 9.29544
lwrist -132.08
lhand -26.4567 20.6045
lfingers 7.12502
lthumb 0.104649 50.5842
rfemur -101.551 9.6678 53.8453
rtibia 66.1985
rfoot -16.3478 -23.0747
rtoes 2.88989
lfemur -111.535 19.6076 -33.3136
ltibia 100.511
lfoot -12.8652 -7.4183
ltoes -7.39985
570
root -6.30331 13.4377 -4.98435 -128.743 -72.8884 191.242
lowerback 15.9171 1.58762 -6.57793
upperback 3.29774 0.73852 -1.02875
thorax -5.47531 0.371091 2.48807
lowerneck -12.5215 7.04782 -0.868531
upperneck -34.5103 5.72266 -8.5396
head -8.698 2.30795 -2.83357
rclavicle 5.00937e-014 1.10723e-013
rhumerus 8.46856 26.9979 -102.413
rradius 72.5732
rwrist -10.004
rhand -29.4714 -13.203
rfingers 7.12502
rthumb -2.80693 -43.1643
lclavicle 5.00937e-014 1.10723e-013
lhumerus 91.6322 33.6241 210.638
lradius 9.10504
lwrist -130.738
lhand -26.0536 20.6628
lfingers 7.12502
lthumb 0.494016 50.642
rfemur -101.743 9.62962 54.2428
rtibia 65.9944
rfoot -15.8359 -22.9818
rtoes 1.64874
lfemur -110.953 19.3704 -33.8048
ltibia 101.045
lfoot -12.7785 -7.60222
ltoes -8.08581
571
root -6.26606 13.4404 -4.99539 -128.6 -73.2602 191.193
lowerback 15.8812 1.55497 -6.49661
upperback 3.19563 0.721205 -0.946644
thorax -5.56328 0.369912 2.5325
lowerneck -12.7496 6.91699 -1.00237
upperneck -34.2037 5.65266 -8.20384
head -8.57143 2.26538 -2.67531
rclavicle 7.03698e-014 6.64935e-014
rhumerus 8.11327 26.8807 -102.344
rradius 72.9268
rwrist -10.2017
rhand -29.6214 -13.6034
rfingers 7.12502
rthumb -2.95181 -43.5628
lclavicle 7.03698e-014 6.64935e-014
lhumerus 90.715 33.9196 209.315
lradius 8.94146
lwrist -129.745
lhand -25.6472 21.0987
lfingers 7.12502
lthumb 0.886532 51.0766
rfemur -101.87 9.51564 54.7757
rtibia 65.7857
rfoot -15.2378 -22.7963
rtoes -0.462797
lfemur -110.32 19.1316 -34.212
ltibia 101.488
lfoot -12.5619 -8.07685
ltoes -8.04244
572
root -6.22852 13.4338 -5.00536 -128.601 -73.707 191.292
lowerback 15.6348 1.54546 -6.5413
upperback 3.17644 0.741652 -0.737551
thorax -5.45429 0.382272 2.77797
lowerneck -12.5852 6.85835 -0.925854
upperneck -34.2283 5.57253 -8.1791
head -8.60621 2.2212 -2.68363
rclavicle 7.71285e-014 7.60351e-014
rhumerus 7.79542 26.814 -102.141
rradius 73.2684
rwrist -10.2946
rhand -29.823 -13.4183
rfingers 7.12502
rthumb -3.14653 -43.3748
lclavicle 7.71285e-014 7.60351e-014
lhumerus 89.7095 33.9809 208.09
lradius 8.95434
lwrist -128.946
lhand -25.04 21.2816
lfingers 7.12502
lthumb 1.47291 51.2562
rfemur -102.063 9.42686 55.3614
rtibia 65.6331
rfoot -14.931 -22.4972
rtoes -1.37257
lfemur -109.831 18.8798 -34.728
ltibia 101.885
lfoot -12.4378 -8.66387
ltoes -9.7108
573
root -6.18841 13.4262 -5.01608 -128.643 -74.0941 191.409
lowerback 15.6162 1.61671 -6.45917
upperback 3.09966 0.860545 -0.618061
thorax -5.53819 0.44622 2.83399
lowerneck -12.5529 6.67368 -0.929667
upperneck -34.1187 5.32946 -8.12372
head -8.58204 2.10579 -2.65588
rclavicle -4.21423e-014 6.95746e-016
rhumerus 7.41288 26.4417 -101.949
rradius 73.6621
rwrist -10.2466
rhand -30.0224 -13.0101
rfingers 7.12502
rthumb -3.33912 -42.9637
lclavicle -4.21423e-014 6.95746e-016
lhumerus 88.4286 34.2407 206.73
lradius 8.99557
lwrist -128.073
lhand -25.2436 21.5142
lfingers 7.12502
lthumb 1.27625 51.4901
rfemur -102.248 9.42436 55.8204
rtibia 65.4926
rfoot -14.8257 -22.3206
rtoes -2.24832
lfemur -109.388 18.6732 -35.3415
ltibia 102.219
lfoot -12.3919 -9.12714
ltoes -11.3801
574
root -6.14667 13.4271 -5.02811 -128.75 -74.469 191.635
lowerback 15.6055 1.61855 -6.24736
upperback 3.00819 0.900289 -0.61885
thorax -5.63103 0.469006 2.70459
lowerneck -12.7297 6.52453 -0.906313
upperneck -33.9243 5.17568 -7.9296
head -8.49466 2.01312 -2.57785
rclavicle -2.54444e-014 -4.1546e-014
rhumerus 7.12587 26.1351 -101.933
rradius 74.1228
rwrist -10.3054
rhand -29.905 -13.4311
rfingers 7.12502
rthumb -3.22573 -43.3864
lclavicle -2.54444e-014 -4.1546e-014
lhumerus 87.2366 34.5052 205.169
lradius 8.91341
lwrist -126.996
lhand -25.1684 21.579
lfingers 7.12502
lthumb 1.34895 51.5545
rfemur -102.426 9.43293 56.2491
rtibia 65.3496
rfoot -15.1113 -21.9221
rtoes -1.44441
lfemur -108.888 18.5325 -35.7762
ltibia 102.467
lfoot -11.9978 -9.97521
ltoes -11.2381
575
root -6.10963 13.4439 -5.04844 -129.212 -74.8837 191.898
lowerback 15.8141 1.55055 -6.1115
upperback 3.03683 0.811345 -0.684406
thorax -5.70326 0.423116 2.57463
lowerneck -12.7808 6.53502 -0.432712
upperneck -33.9551 5.18297 -7.82696
head -8.48038 1.94509 -2.62132
rclavicle 5.36719e-014 7.84206e-014
rhumerus 6.89968 26 -102.215
rradius 74.4595
rwrist -10.6367
rhand -29.9879 -13.4525
rfingers 7.12502
rthumb -3.30577 -43.4066
lclavicle 5.36719e-014 7.84206e-014
lhumerus 86.2179 34.5605 203.397
lradius 8.68633
lwrist -125.612
lhand -24.8262 21.445
lfingers 7.12502
lthumb 1.67947 51.4182
rfemur -102.288 9.20538 56.6027
rtibia 65.2726
rfoot -15.9967 -21.2532
rtoes 2.02201
lfemur -107.97 18.5974 -35.9877
ltibia 102.63
lfoot -11.3191 -11.4367
ltoes -10.4909
576
root -6.06864 13.4504 -5.07049 -129.861 -75.3058 192.507
lowerback 15.8305 1.49511 -6.07683
upperback 3.01799 0.746551 -0.655564
thorax -5.72636 0.393137 2.59884
lowerneck -12.685 6.54608 -0.165548
upperneck -34.0891 5.22625 -7.61755
head -8.54006 1.91419 -2.60103
rclavicle -2.46493e-014 -1.3418e-014
rhumerus 6.58879 25.9818 -102.465
rradius 74.8349
rwrist -10.8709
rhand -30.0645 -13.6687
rfingers 7.12502
rthumb -3.37976 -43.6217
lclavicle -2.46493e-014 -1.3418e-014
lhumerus 85.2789 34.3763 201.775
lradius 8.48092
lwrist -124.149
lhand -24.9914 21.1864
lfingers 7.12502
lthumb 1.51985 51.1607
rfemur -102.282 9.17132 57.0258
rtibia 65.181
rfoot -16.6864 -20.6987
rtoes 4.56629
lfemur -107.375 18.6771 -36.2931
ltibia 102.799
lfoot -10.5034 -13.0264
ltoes -9.54014
577
root -6.02432 13.4388 -5.08538 -130.299 -75.7222 193.088
lowerback 15.5417 1.51597 -5.94073
upperback 2.9948 0.828665 -0.562611
thorax -5.60058 0.431074 2.60627
lowerneck -12.7819 6.40746 -0.823401
upperneck -33.92 5.25576 -6.98302
head -8.51605 1.9696 -2.26391
rclavicle -2.90226e-014 -6.72886e-014
rhumerus 5.95136 25.7376 -102.535
rradius 75.3979
rwrist -10.7588
rhand -30.2535 -13.42
rfingers 7.12502
rthumb -3.56223 -43.37
lclavicle -2.90226e-014 -6.72886e-014
lhumerus 84.0584 34.4631 200.291
lradius 8.48126
lwrist -123.006
lhand -25.2762 20.8222
lfingers 7.12502
lthumb 1.24481 50.7983
rfemur -102.499 9.30857 57.1485
rtibia 65.1869
rfoot -18.3303 -19.7195
rtoes 11.6598
lfemur -106.967 18.6371 -36.7461
ltibia 102.966
lfoot -9.53397 -14.3978
ltoes -8.04194
578
root -5.98194 13.422 -5.09252 -129.824 -76.0677 192.765
lowerback 15.2347 1.53144 -5.84072
upperback 2.87533 0.893348 -0.549207
thorax -5.56495 0.46644 2.55279
lowerneck -12.7132 6.26947 -0.924405
upperneck -33.6359 5.13123 -6.89714
head -8.43178 1.93736 -2.2102
rclavicle 1.51076e-014 9.14409e-015
rhumerus 5.41145 25.3486 -102.534
rradius 75.7835
rwrist -10.7845
rhand -30.4976 -12.8897
rfingers 7.12502
rthumb -3.79797 -42.8356
lclavicle 1.51076e-014 9.14409e-015
lhumerus 82.7245 34.951 198.797
lradius 8.59324
lwrist -121.976
lhand -25.9845 20.8544
lfingers 7.12502
lthumb 0.560707 50.8334
rfemur -102.88 9.38748 57.4648
rtibia 65.0799
rfoot -18.3441 -19.9179
rtoes 11.9501
lfemur -106.606 18.3711 -37.4038
ltibia 103.151
lfoot -8.25015 -15.5745
ltoes -6.53867
